<svg xmlns="http://www.w3.org/2000/svg" width="980" height="150" viewBox="0 0 980 150">
<defs><style>.box{fill:#fff;stroke:#b9c7d8;stroke-width:2;rx:10}.t{font-family:Segoe UI,Arial;font-size:16px;font-weight:600;fill:#0b2f5b}.s{font-family:Segoe UI,Arial;font-size:12px;fill:#486581}.a{stroke:#2563eb;stroke-width:2;marker-end:url(#arrow)} marker{overflow:visible}</style>
<marker id="arrow" markerWidth="10" markerHeight="10" refX="8" refY="3" orient="auto"><path d="M0,0 L0,6 L9,3 z" fill="#2563eb"/></marker></defs>
<rect class="box" x="10" y="38" width="140" height="74" rx="10"/><text class="t" x="30" y="68">Input</text><text class="s" x="30" y="91">Resource + time</text>
<line class="a" x1="155" y1="75" x2="200" y2="75"/>
<rect class="box" x="205" y="38" width="160" height="74" rx="10"/><text class="t" x="225" y="68">Runbook</text><text class="s" x="225" y="91">Orchestration</text>
<line class="a" x1="370" y1="75" x2="415" y2="75"/>
<rect class="box" x="420" y="38" width="180" height="74" rx="10"/><text class="t" x="440" y="68">Resource Graph</text><text class="s" x="440" y="91">Find related resources</text>
<line class="a" x1="605" y1="75" x2="650" y2="75"/>
<rect class="box" x="655" y="38" width="150" height="74" rx="10"/><text class="t" x="675" y="68">Activity Logs</text><text class="s" x="675" y="91">Fetch changes</text>
<line class="a" x1="810" y1="75" x2="855" y2="75"/>
<rect class="box" x="860" y="38" width="110" height="74" rx="10"/><text class="t" x="880" y="68">Output</text><text class="s" x="880" y="91">Changes</text>
</svg>